<svg width="87" height="100" viewBox="0 0 87 100" fill="none" xmlns="http://www.w3.org/2000/svg">
<g clip-path="url(#clip0_14_2273)">
<path d="M13.8097 0.286316V16.2687L-0.0321045 24.2609L-13.8729 16.2697V0.285339L-0.0321045 -7.70587L13.8097 0.286316Z" stroke="white" stroke-opacity="0.6" stroke-width="0.993377"/>
<path d="M28.1475 25.1208V41.1032L14.3057 49.0954L0.464844 41.1042V25.1198L14.3057 17.1286L28.1475 25.1208Z" stroke="white" stroke-opacity="0.6" stroke-width="0.993377"/>
<path d="M28.1475 74.7896V90.772L14.3057 98.7642L0.464844 90.773V74.7886L14.3057 66.7974L28.1475 74.7896Z" stroke="white" stroke-opacity="0.6" stroke-width="0.993377"/>
<path d="M42.486 0.286316V16.2687L28.6442 24.2609L14.8033 16.2697V0.285339L28.6442 -7.70587L42.486 0.286316Z" stroke="white" stroke-opacity="0.6" stroke-width="0.993377"/>
<path d="M42.9822 49.6689L28.644 41.3907L28.644 24.8344L42.9822 16.5563L57.3204 24.8345L57.3204 41.3907L42.9822 49.6689Z" fill="#972424"/>
<path d="M56.8237 25.1208V41.1032L42.9819 49.0954L29.1411 41.1042V25.1198L42.9819 17.1286L56.8237 25.1208Z" stroke="white" stroke-opacity="0.6" stroke-width="0.993377"/>
<path d="M28.6444 74.5033L14.3063 66.2252L14.3063 49.6689L28.6444 41.3907L42.9826 49.6689L42.9826 66.2252L28.6444 74.5033Z" fill="#972424"/>
<path d="M42.486 49.9552V65.9376L28.6442 73.9298L14.8033 65.9386V49.9542L28.6442 41.963L42.486 49.9552Z" stroke="white" stroke-opacity="0.6" stroke-width="0.993377"/>
<path d="M56.8237 74.7896V90.772L42.9819 98.7642L29.1411 90.773V74.7886L42.9819 66.7974L56.8237 74.7896Z" stroke="white" stroke-opacity="0.6" stroke-width="0.993377"/>
<path d="M71.1624 0.286316V16.2687L57.3206 24.2609L43.4797 16.2697V0.285339L57.3206 -7.70587L71.1624 0.286316Z" stroke="white" stroke-opacity="0.6" stroke-width="0.993377"/>
<path d="M85.5001 25.1208V41.1032L71.6583 49.0954L57.8175 41.1042V25.1198L71.6583 17.1286L85.5001 25.1208Z" stroke="white" stroke-opacity="0.6" stroke-width="0.993377"/>
<path d="M57.3208 74.5033L42.9827 66.2252L42.9827 49.6689L57.3208 41.3907L71.659 49.6689L71.659 66.2252L57.3208 74.5033Z" fill="#972424"/>
<path d="M71.1624 49.9552V65.9376L57.3206 73.9298L43.4797 65.9386V49.9542L57.3206 41.963L71.1624 49.9552Z" stroke="white" stroke-opacity="0.6" stroke-width="0.993377"/>
<path d="M85.5001 74.7896V90.772L71.6583 98.7642L57.8175 90.773V74.7886L71.6583 66.7974L85.5001 74.7896Z" stroke="white" stroke-opacity="0.6" stroke-width="0.993377"/>
<path d="M99.8386 0.286316V16.2687L85.9968 24.2609L72.156 16.2697V0.285339L85.9968 -7.70587L99.8386 0.286316Z" stroke="white" stroke-opacity="0.6" stroke-width="0.993377"/>
</g>
<defs>
<clipPath id="clip0_14_2273">
<rect width="86.0927" height="100" fill="white"/>
</clipPath>
</defs>
</svg>
